<svg width="741" height="496" viewBox="0 0 741 496" fill="none" xmlns="http://www.w3.org/2000/svg">
<g clip-path="url(#clip0)">
<path d="M719.15 480.36H20.694V481.861H719.15V480.36Z" fill="#3F3D56"/>
<path d="M75.6293 208.161L75.0437 209.543L718.347 480.985L718.933 479.603L75.6293 208.161Z" fill="#3F3D56"/>
<path d="M719.15 208.035H20.694V209.536H719.15V208.035Z" fill="#3F3D56"/>
<path d="M624.419 240.669C624.515 272.415 618.341 303.868 606.249 333.231C594.158 362.594 576.386 389.292 553.949 411.799C551.475 414.282 548.947 416.708 546.363 419.076C543.25 421.941 540.058 424.72 536.785 427.41C536.161 427.928 535.537 428.438 534.905 428.941C521.976 439.396 507.974 448.456 493.133 455.971C492.253 456.413 491.374 456.856 490.487 457.291C489.081 457.981 487.66 458.657 486.239 459.317C433.637 483.741 373.817 487.791 318.391 470.682C221.352 440.629 150.762 349.022 150.762 240.669C150.762 107.876 256.793 0.22876 387.59 0.22876C518.387 0.22876 624.419 107.876 624.419 240.669Z" fill="#FF639B" fill-opacity="0.67"/>
<path d="M440.32 190.23L440.508 190.223L439.766 188.598C438.933 186.297 437.915 184.066 436.722 181.928L414.968 134.267C414.273 132.746 413.149 131.46 411.733 130.568C410.317 129.675 408.67 129.214 406.995 129.242L379.445 129.7C377.664 129.73 375.935 130.311 374.499 131.362C373.063 132.414 371.989 133.885 371.426 135.571L354.106 187.477C353.536 188.93 353.042 190.412 352.625 191.917L352.037 193.679L352.175 193.673C350.57 200.519 350.571 207.641 352.178 214.485C353.785 221.33 356.955 227.712 361.44 233.133C365.924 238.555 371.603 242.869 378.034 245.741C384.464 248.613 391.473 249.964 398.513 249.689C405.552 249.414 412.433 247.52 418.619 244.156C424.805 240.791 430.129 236.047 434.175 230.292C438.221 224.537 440.881 217.928 441.947 210.979C443.013 204.03 442.456 196.929 440.32 190.23H440.32Z" fill="#3F3D56"/>
<path d="M388.976 141.356L380.307 188.644L381.285 188.823L389.955 141.534L388.976 141.356Z" fill="#FF6397"/>
<path d="M399.394 141.182L398.422 141.393L408.656 188.369L409.628 188.158L399.394 141.182Z" fill="#FF6397"/>
<path d="M376.442 106.425L411.745 105.838C412.008 105.834 412.263 105.934 412.453 106.117C412.642 106.3 412.751 106.551 412.756 106.814C412.76 107.077 412.659 107.331 412.476 107.521C412.293 107.71 412.042 107.818 411.778 107.823L376.476 108.41C376.345 108.412 376.215 108.388 376.094 108.34C375.972 108.293 375.861 108.221 375.767 108.131C375.674 108.04 375.599 107.932 375.547 107.812C375.495 107.693 375.467 107.564 375.464 107.434C375.462 107.304 375.486 107.174 375.534 107.053C375.582 106.932 375.653 106.821 375.744 106.727C375.835 106.634 375.943 106.559 376.063 106.507C376.183 106.455 376.312 106.427 376.442 106.425Z" fill="#3F3D56"/>
<path d="M376.815 113.863L412.117 113.276C412.381 113.272 412.636 113.372 412.825 113.555C413.015 113.738 413.124 113.989 413.128 114.252C413.133 114.515 413.032 114.769 412.849 114.959C412.666 115.148 412.414 115.256 412.151 115.261L376.848 115.848C376.585 115.852 376.33 115.752 376.14 115.569C375.951 115.386 375.842 115.135 375.837 114.872C375.833 114.609 375.933 114.355 376.117 114.165C376.3 113.976 376.551 113.867 376.815 113.863Z" fill="#3F3D56"/>
<path d="M377.188 121.301L412.49 120.714C412.754 120.71 413.009 120.81 413.198 120.993C413.388 121.176 413.497 121.427 413.501 121.69C413.506 121.953 413.405 122.207 413.222 122.396C413.039 122.586 412.787 122.694 412.524 122.699L377.221 123.286C376.958 123.29 376.703 123.19 376.513 123.007C376.324 122.824 376.215 122.573 376.21 122.31C376.206 122.047 376.307 121.793 376.49 121.603C376.673 121.414 376.924 121.305 377.188 121.301Z" fill="#3F3D56"/>
<path d="M393.975 99.0541C386.973 99.1705 381.361 103.159 381.442 107.963L406.799 107.541C406.719 102.738 400.978 98.9377 393.975 99.0541Z" fill="#3F3D56"/>
<path d="M397.877 195.628C399.261 195.721 400.572 196.28 401.596 197.213C401.858 197.43 402.116 197.658 402.374 197.886C403.192 198.737 404.194 199.392 405.304 199.798C407.734 200.46 410.132 198.543 412.157 196.58L412.85 197.292C410.625 199.45 407.957 201.549 405.042 200.756C403.783 200.314 402.644 199.586 401.716 198.629C401.465 198.408 401.215 198.188 400.961 197.977C400.13 197.289 398.525 196.219 397.098 196.774C396.506 197.062 395.979 197.468 395.549 197.966C395.217 198.315 394.858 198.638 394.475 198.932C393.691 199.487 392.761 199.798 391.8 199.826C390.84 199.855 389.893 199.599 389.077 199.092C388.784 198.897 388.502 198.686 388.232 198.46C387.79 198.022 387.239 197.709 386.636 197.553C385.791 197.434 385.023 198.037 384.209 198.673C383.439 199.42 382.455 199.907 381.395 200.068C381.359 200.07 381.322 200.071 381.286 200.072C379.304 200.105 378.047 198.127 377.27 196.623L378.154 196.168C379.21 198.212 380.229 199.144 381.342 199.077C382.194 198.914 382.978 198.502 383.595 197.892C384.536 197.156 385.51 196.394 386.773 196.57C387.559 196.741 388.282 197.128 388.858 197.688C389.1 197.891 389.353 198.081 389.615 198.257C390.263 198.652 391.012 198.851 391.771 198.828C392.53 198.806 393.266 198.563 393.889 198.13C394.23 197.866 394.55 197.577 394.846 197.265C395.369 196.665 396.013 196.183 396.736 195.85C397.1 195.708 397.487 195.633 397.877 195.628Z" fill="#FF6397"/>
<path d="M395.097 0H394.063V99.0136H395.097V0Z" fill="#3F3D56"/>
<path d="M707.042 171.55C700.74 194.795 679.155 209.192 679.155 209.192C679.155 209.192 667.786 185.9 674.088 162.654C680.39 139.409 701.976 125.012 701.976 125.012C701.976 125.012 713.344 148.304 707.042 171.55Z" fill="#FF6397"/>
<path d="M649.711 171.55C656.014 194.795 677.599 209.192 677.599 209.192C677.599 209.192 688.968 185.9 682.666 162.654C676.364 139.409 654.778 125.012 654.778 125.012C654.778 125.012 643.409 148.304 649.711 171.55Z" fill="#FF6397"/>
<path d="M658.972 166.554C676.265 183.351 678.377 209.173 678.377 209.173C678.377 209.173 652.452 207.76 635.159 190.963C617.866 174.165 615.754 148.344 615.754 148.344C615.754 148.344 641.679 149.756 658.972 166.554Z" fill="#3F3D56"/>
<path d="M697.782 166.554C680.489 183.351 678.377 209.173 678.377 209.173C678.377 209.173 704.302 207.76 721.595 190.963C738.888 174.165 741 148.344 741 148.344C741 148.344 715.075 149.756 697.782 166.554Z" fill="#3F3D56"/>
<path d="M91.2884 443.124C84.9863 466.369 63.4005 480.766 63.4005 480.766C63.4005 480.766 52.0322 457.474 58.3343 434.229C64.6363 410.983 86.2221 396.586 86.2221 396.586C86.2221 396.586 97.5904 419.878 91.2884 443.124Z" fill="#FF6397"/>
<path d="M33.9576 443.124C40.2596 466.369 61.8454 480.766 61.8454 480.766C61.8454 480.766 73.2137 457.474 66.9117 434.229C60.6096 410.983 39.0238 396.586 39.0238 396.586C39.0238 396.586 27.6555 419.878 33.9576 443.124Z" fill="#FF6397"/>
<path d="M43.2179 438.128C60.5108 454.926 62.623 480.747 62.623 480.747C62.623 480.747 36.6979 479.335 19.405 462.537C2.11219 445.74 0 419.918 0 419.918C0 419.918 25.9251 421.331 43.2179 438.128Z" fill="#3F3D56"/>
<path d="M82.0281 438.128C64.7352 454.926 62.623 480.747 62.623 480.747C62.623 480.747 88.5481 479.335 105.841 462.537C123.134 445.74 125.246 419.918 125.246 419.918C125.246 419.918 99.3209 421.331 82.0281 438.128Z" fill="#3F3D56"/>
<path d="M503.988 228.38C511.974 228.38 518.449 221.92 518.449 213.95C518.449 205.981 511.974 199.521 503.988 199.521C496.001 199.521 489.526 205.981 489.526 213.95C489.526 221.92 496.001 228.38 503.988 228.38Z" fill="#2F2E41"/>
<path d="M488.494 207.766C488.494 204.207 489.813 200.774 492.196 198.126C494.579 195.478 497.859 193.803 501.405 193.422C499.386 193.201 497.342 193.408 495.408 194.029C493.474 194.649 491.693 195.67 490.181 197.023C488.668 198.376 487.458 200.032 486.63 201.883C485.802 203.734 485.374 205.739 485.374 207.766C485.374 209.793 485.802 211.797 486.63 213.648C487.458 215.5 488.668 217.156 490.181 218.509C491.693 219.862 493.474 220.883 495.408 221.503C497.342 222.124 499.386 222.33 501.405 222.11C497.859 221.729 494.579 220.054 492.196 217.406C489.813 214.758 488.494 211.325 488.494 207.766Z" fill="#2F2E41"/>
<path d="M489.526 213.95C489.526 213.95 487.281 224.257 501.315 228.38L489.526 213.95Z" fill="#FF6397"/>
<path d="M509.968 311.963C536.781 311.963 558.516 290.275 558.516 263.521C558.516 236.767 536.781 215.078 509.968 215.078C483.156 215.078 461.42 236.767 461.42 263.521C461.42 290.275 483.156 311.963 509.968 311.963Z" fill="#2F2E41"/>
<path d="M536.784 427.41C536.16 427.928 535.536 428.438 534.905 428.941C521.975 439.396 507.973 448.456 493.133 455.971C492.253 456.413 491.374 456.856 490.486 457.291C489.08 457.981 487.66 458.656 486.239 459.317L461.353 451.042L461.638 445.093V445.07L462.721 422.384L463.09 414.627L536.784 427.41Z" fill="#A0616A"/>
<path d="M490.486 457.291C489.081 457.981 487.66 458.657 486.239 459.317C476.518 463.852 466.491 467.705 456.233 470.848C456.181 470.698 456.15 470.541 456.143 470.382L461.353 444.973L461.639 445.093L490.486 457.291Z" fill="#2F2E41"/>
<path d="M497.85 314.916C515.606 314.916 530 300.554 530 282.836C530 265.119 515.606 250.756 497.85 250.756C480.094 250.756 465.7 265.119 465.7 282.836C465.7 300.554 480.094 314.916 497.85 314.916Z" fill="#A0616A"/>
<path d="M523.917 284.57C523.917 284.57 529.131 310.581 538.689 316.65L485.685 379.077L465.7 360.002L480.471 333.991C480.471 333.991 496.981 324.454 491.767 311.448L523.917 284.57Z" fill="#A0616A"/>
<path d="M586.819 370.718C577.398 385.568 566.376 399.343 553.949 411.799C553.415 400.171 552.257 390.583 549.987 387.747C549.981 387.747 549.976 387.744 549.972 387.74L522.176 379.075C522.176 379.075 528.259 321.849 543.032 319.253C543.032 319.253 545.175 319.689 548.506 320.694C559.242 323.92 582.293 333.012 585.609 352.195C586.552 358.322 586.957 364.52 586.819 370.718Z" fill="#A0616A"/>
<path d="M480.472 333.991C480.472 333.991 454.404 333.124 437.895 353.933C421.385 374.741 381.415 390.348 381.415 390.348L281.49 429.364C281.49 429.364 263.243 397.284 251.947 408.556C240.651 419.827 272.801 448.439 287.572 444.971C302.344 441.503 391.842 414.625 391.842 414.625L463.093 382.545L480.472 333.991Z" fill="#A0616A"/>
<path d="M549.987 387.747L546.363 419.076C543.25 421.942 540.057 424.72 536.784 427.411C536.16 427.928 535.536 428.438 534.905 428.941C509.816 421.266 470.503 422.122 462.721 422.384C461.834 422.407 461.353 422.429 461.353 422.429L460.488 404.222C452.15 401.453 449.414 395.399 449.339 388.737C449.211 376.659 457.879 362.6 457.879 362.6C459.436 361.047 471.067 339.044 473.472 334.483C473.751 333.95 473.909 333.657 473.909 333.657L484.336 331.062C484.336 331.062 484.306 331.144 484.246 331.294C483.314 333.897 475.209 357.446 489.163 358.264C502.892 359.074 532.755 320.604 536.867 315.21C537.175 314.805 537.341 314.587 537.341 314.587L548.641 320.656C548.596 320.671 548.551 320.679 548.506 320.694C541.604 322.607 535.213 339.194 535.213 339.194C517.192 370.883 549.182 387.342 549.972 387.74C549.976 387.744 549.981 387.747 549.987 387.747Z" fill="#D0CDE1"/>
<path d="M499.596 245.181C482.482 245.181 468.608 253.256 468.608 263.218C468.608 267.675 471.397 271.749 476 274.896L481.966 270.583L480.344 277.34C481.017 277.651 481.704 277.952 482.421 278.231L491.333 267.856V280.601C494.066 281.038 496.829 281.257 499.596 281.255C516.711 281.255 530.584 273.179 530.584 263.218C530.584 253.256 516.711 245.181 499.596 245.181Z" fill="#2F2E41"/>
<path d="M563.074 250.923C571.06 250.923 577.535 244.462 577.535 236.493C577.535 228.524 571.06 222.063 563.074 222.063C555.087 222.063 548.613 228.524 548.613 236.493C548.613 244.462 555.087 250.923 563.074 250.923Z" fill="#2F2E41"/>
<path d="M547.58 230.309C547.58 226.75 548.899 223.317 551.282 220.669C553.665 218.021 556.945 216.345 560.492 215.964C559.977 215.908 559.46 215.88 558.942 215.879C556.976 215.876 555.03 216.273 553.223 217.046C551.416 217.82 549.786 218.952 548.432 220.375C547.078 221.798 546.03 223.482 545.351 225.323C544.671 227.164 544.375 229.124 544.481 231.083C544.586 233.042 545.091 234.959 545.964 236.717C546.837 238.475 548.061 240.036 549.559 241.306C551.058 242.577 552.8 243.528 554.68 244.104C556.559 244.679 558.537 244.866 560.492 244.653C556.945 244.272 553.665 242.596 551.282 239.949C548.899 237.301 547.58 233.868 547.58 230.309Z" fill="#2F2E41"/>
<path d="M548.613 236.493C548.613 236.493 546.367 246.8 560.401 250.923L548.613 236.493Z" fill="#FF6397"/>
<path d="M531.303 285.871C532.69 285.871 533.813 283.348 533.813 280.235C533.813 277.123 532.69 274.6 531.303 274.6C529.917 274.6 528.793 277.123 528.793 280.235C528.793 283.348 529.917 285.871 531.303 285.871Z" fill="#A0616A"/>
<path d="M254.257 302.037L216.156 311.249L216.032 311.278L211.89 315.02L210.698 316.095L208.143 315.633L203.619 314.817L206.771 304.2L207.362 283.949L205.195 271.563L217.214 263.305C217.214 263.305 240.662 261.929 254.257 302.037Z" fill="#D0CDE1"/>
<path opacity="0.1" d="M216.156 311.249C215.64 312.348 216.722 311.622 216.13 312.753L210.613 314.522L208.143 315.633L203.619 314.817L206.771 304.2L207.362 283.95L205.195 271.563L217.214 263.306C217.214 263.306 230.114 281.535 216.156 311.249Z" fill="black"/>
<path d="M299.181 272.939C299.181 272.939 249.134 296.139 228.839 299.678C208.545 303.217 210.318 323.468 210.318 323.468L324.008 305.773C324.008 305.773 320.067 287.489 299.181 272.939Z" fill="#D0CDE1"/>
<path d="M202.633 269.007C202.633 269.007 211.303 290.044 201.648 316.193L212.879 321.305L217.214 316.193L217.313 315.702L205.392 314.62C205.392 314.62 215.244 288.275 207.165 269.99C207.165 269.99 205.392 266.058 202.633 269.007Z" fill="#FF6397"/>
<path d="M367.947 424.918C323.614 415.088 282.335 435.437 282.335 435.437L282.222 435.336L265.784 420.691L201.55 316.095L217.214 316.193C260.759 290.241 322.038 293.78 322.038 293.78C348.44 323.664 367.947 424.918 367.947 424.918Z" fill="#3F3D56"/>
<path opacity="0.1" d="M282.222 435.336L265.784 420.691L201.55 316.095L217.214 316.193C217.214 316.193 279.647 398.472 282.222 435.336Z" fill="black"/>
<path d="M289.437 353.725C302.858 349.618 311.616 339.387 309 330.875C306.383 322.362 293.382 318.791 279.961 322.899C266.541 327.006 257.782 337.237 260.399 345.749C263.015 354.262 276.016 357.833 289.437 353.725Z" fill="#D0CDE1"/>
<path d="M20.8961 222.175C28.7854 222.175 35.181 215.794 35.181 207.921C35.181 200.049 28.7854 193.667 20.8961 193.667C13.0068 193.667 6.61121 200.049 6.61121 207.921C6.61121 215.794 13.0068 222.175 20.8961 222.175Z" fill="#3F3D56"/>
<path d="M718.6 496C726.49 496 732.885 489.618 732.885 481.746C732.885 473.874 726.49 467.492 718.6 467.492C710.711 467.492 704.315 473.874 704.315 481.746C704.315 489.618 710.711 496 718.6 496Z" fill="#3F3D56"/>
<path d="M83.2985 220.675C89.527 220.675 94.5761 215.637 94.5761 209.422C94.5761 203.207 89.527 198.169 83.2985 198.169C77.0701 198.169 72.021 203.207 72.021 209.422C72.021 215.637 77.0701 220.675 83.2985 220.675Z" fill="#FF6397"/>
<path d="M718.6 220.675C724.829 220.675 729.878 215.637 729.878 209.422C729.878 203.207 724.829 198.169 718.6 198.169C712.372 198.169 707.323 203.207 707.323 209.422C707.323 215.637 712.372 220.675 718.6 220.675Z" fill="#FF6397"/>
<path d="M20.8961 491.499C27.1245 491.499 32.1736 486.461 32.1736 480.246C32.1736 474.031 27.1245 468.993 20.8961 468.993C14.6677 468.993 9.61853 474.031 9.61853 480.246C9.61853 486.461 14.6677 491.499 20.8961 491.499Z" fill="#FF6397"/>
</g>
<defs>
<clipPath id="clip0">
<rect width="741" height="496" fill="white"/>
</clipPath>
</defs>
</svg>
